#!OML:ASF G:\JayActor3\Patient Classification 1\Patient 1\Session 5\male.ASF
:FULLY-SPECIFIED
:DEGREES
1000
root 47.4816 17.1226 -7.01538 -958.376 -91.0279 975.741
lowerback 22.6918 -1.64805 1.74768
upperback 5.84942 -2.22249 -1.11324
thorax -6.34322 -1.25437 -1.57464
lowerneck 6.00942 1.24637 3.14522
upperneck -17.6353 1.85811 0.0653679
head -6.31039 0.565438 -0.621452
rclavicle -5.96354e-016 1.98785e-015
rhumerus -28.4689 -1.07415 -89.595
rradius 33.0238
rwrist 0.363488
rhand -22.7449 -8.1994
rfingers 7.12502
rthumb 3.68942 -38.1472
lclavicle -5.96354e-016 1.98785e-015
lhumerus -30.2009 -3.68264 85.7715
lradius 32.5941
lwrist 22.2623
lhand -20.6272 9.30639
lfingers 7.12502
lthumb 5.73429 39.2088
rfemur -47.7918 1.53704 19.3249
rtibia 29.8449
rfoot 15.222 -12.2174
rtoes 17.4754
lfemur -23.1467 5.98137 -24.0574
ltibia 36.2901
lfoot 7.90011 -9.52944
ltoes -20.6619
1001
root 47.6153 17.1083 -6.9989 -961.837 -91.104 979.079
lowerback 22.7497 -1.63159 1.59657
upperback 5.87573 -2.23935 -1.13557
thorax -6.34098 -1.2621 -1.50677
lowerneck 6.02687 1.24286 3.14684
upperneck -17.6779 1.85574 0.0795658
head -6.32719 0.561668 -0.617338
rclavicle 5.76476e-015 3.97569e-015
rhumerus -28.3778 -1.02557 -89.6727
rradius 33.0593
rwrist 0.361004
rhand -22.8159 -8.16345
rfingers 7.12502
rthumb 3.62088 -38.1124
lclavicle 5.76476e-015 3.97569e-015
lhumerus -30.0906 -3.7436 85.8272
lradius 32.6089
lwrist 22.2448
lhand -20.6373 9.41303
lfingers 7.12502
lthumb 5.72457 39.3157
rfemur -48.0553 1.91391 18.8801
rtibia 29.5654
rfoot 15.3891 -13.2893
rtoes 17.8079
lfemur -23.5206 6.44585 -24.3867
ltibia 36.4902
lfoot 7.40822 -9.67198
ltoes -21.3712
1002
root 47.7495 17.0975 -6.98229 -964.887 -91.1789 982.028
lowerback 22.797 -1.61648 1.45246
upperback 5.90265 -2.25676 -1.16025
thorax -6.33281 -1.27012 -1.44554
lowerneck 6.04707 1.2421 3.15222
upperneck -17.7443 1.85724 0.0932275
head -6.35195 0.55879 -0.614401
rclavicle 2.64384e-014 8.54774e-015
rhumerus -28.2824 -0.988529 -89.757
rradius 33.0886
rwrist 0.368695
rhand -22.864 -8.14261
rfingers 7.12502
rthumb 3.57446 -38.0924
lclavicle 2.64384e-014 8.54774e-015
lhumerus -29.9787 -3.80395 85.8759
lradius 32.6197
lwrist 22.2144
lhand -20.657 9.48664
lfingers 7.12502
lthumb 5.70555 39.3898
rfemur -48.3191 2.32439 18.3916
rtibia 29.2197
rfoot 15.5766 -14.4795
rtoes 18.1931
lfemur -23.9937 6.93467 -24.7122
ltibia 36.7489
lfoot 7.09046 -9.84917
ltoes -21.7539
1003
root 47.8833 17.0894 -6.96533 -967.588 -91.2444 984.649
lowerback 22.827 -1.60305 1.32257
upperback 5.93054 -2.2732 -1.18446
thorax -6.31508 -1.27775 -1.39266
lowerneck 6.06557 1.24686 3.16511
upperneck -17.8238 1.86641 0.103778
head -6.38038 0.558914 -0.614277
rclavicle -5.36719e-015 2.40529e-014
rhumerus -28.1846 -0.954816 -89.8468
rradius 33.1114
rwrist 0.370431
rhand -22.8941 -8.11945
rfingers 7.12502
rthumb 3.54532 -38.0697
lclavicle -5.36719e-015 2.40529e-014
lhumerus -29.8719 -3.85885 85.9175
lradius 32.6342
lwrist 22.176
lhand -20.6772 9.51026
lfingers 7.12502
lthumb 5.68598 39.414
rfemur -48.5857 2.74681 17.8792
rtibia 28.8216
rfoot 15.7767 -15.7307
rtoes 18.5771
lfemur -24.5387 7.41765 -25.0169
ltibia 37.0274
lfoot 6.90619 -10.0869
ltoes -21.8862
1004
root 48.0159 17.0835 -6.94763 -970.176 -91.3033 987.176
lowerback 22.8388 -1.59016 1.21054
upperback 5.95867 -2.28644 -1.21047
thorax -6.28822 -1.28395 -1.35328
lowerneck 6.09286 1.25421 3.1769
upperneck -17.9195 1.87989 0.117893
head -6.41551 0.560424 -0.613282
rclavicle 3.97569e-015 -7.55382e-015
rhumerus -28.0964 -0.929824 -89.9384
rradius 33.1344
rwrist 0.365624
rhand -22.9012 -8.10167
rfingers 7.12502
rthumb 3.53851 -38.052
lclavicle 3.97569e-015 -7.55382e-015
lhumerus -29.7757 -3.91336 85.9562
lradius 32.6567
lwrist 22.1407
lhand -20.6855 9.51904
lfingers 7.12502
lthumb 5.67804 39.423
rfemur -48.8495 3.1533 17.3562
rtibia 28.393
rfoot 15.9879 -16.9556
rtoes 18.8708
lfemur -25.1117 7.87148 -25.297
ltibia 37.2893
lfoot 6.82709 -10.3897
ltoes -21.8573
1005
root 48.1465 17.0793 -6.92903 -972.8 -91.3572 989.756
lowerback 22.831 -1.57634 1.11749
upperback 5.98475 -2.29423 -1.24009
thorax -6.25412 -1.2876 -1.33063
lowerneck 6.12357 1.26192 3.19047
upperneck -18.0172 1.89484 0.134956
head -6.45191 0.562218 -0.611787
rclavicle -1.74931e-014 -1.55052e-014
rhumerus -28.0266 -0.91179 -90.0317
rradius 33.1644
rwrist 0.343566
rhand -22.8871 -8.08578
rfingers 7.12502
rthumb 3.55208 -38.0359
lclavicle -1.74931e-014 -1.55052e-014
lhumerus -29.6915 -3.96981 85.9919
lradius 32.6826
lwrist 22.1189
lhand -20.6813 9.52883
lfingers 7.12502
lthumb 5.68209 39.4327
rfemur -49.1145 3.52225 16.8393
rtibia 27.965
rfoot 16.214 -18.0349
rtoes 18.8895
lfemur -25.6803 8.28498 -25.5514
ltibia 37.5052
lfoot 6.79612 -10.7643
ltoes -21.7694
1006
root 48.2745 17.0756 -6.9094 -975.522 -91.4042 992.451
lowerback 22.8024 -1.56137 1.04884
upperback 6.0046 -2.29474 -1.27347
thorax -6.21692 -1.28776 -1.32845
lowerneck 6.16751 1.26719 3.20425
upperneck -18.1115 1.90846 0.157811
head -6.4897 0.56306 -0.608489
rclavicle -2.08724e-014 -2.94201e-014
rhumerus -27.9906 -0.893459 -90.1277
rradius 33.2036
rwrist 0.296187
rhand -22.8694 -8.06174
rfingers 7.12502
rthumb 3.56925 -38.0116
lclavicle -2.08724e-014 -2.94201e-014
lhumerus -29.631 -4.03506 86.0258
lradius 32.7137
lwrist 22.1214
lhand -20.6633 9.52352
lfingers 7.12502
lthumb 5.69942 39.4269
rfemur -49.3834 3.83433 16.3529
rtibia 27.576
rfoot 16.4308 -18.8778
rtoes 18.5794
lfemur -26.2184 8.65635 -25.7757
ltibia 37.6561
lfoot 6.78084 -11.1997
ltoes -21.5791
1007
root 48.3997 17.0718 -6.88884 -978.408 -91.4439 995.326
lowerback 22.7514 -1.54524 1.00452
upperback 6.01817 -2.28779 -1.3088
thorax -6.1757 -1.2843 -1.34478
lowerneck 6.21117 1.27076 3.21403
upperneck -18.186 1.92032 0.184179
head -6.52125 0.563686 -0.603202
rclavicle -5.48646e-014 -6.99722e-014
rhumerus -27.9838 -0.875128 -90.2224
rradius 33.2485
rwrist 0.236579
rhand -22.8426 -8.03953
rfingers 7.12502
rthumb 3.59507 -37.989
lclavicle -5.48646e-014 -6.99722e-014
lhumerus -29.5864 -4.10038 86.0587
lradius 32.7394
lwrist 22.1415
lhand -20.6369 9.51573
lfingers 7.12502
lthumb 5.72493 39.4184
rfemur -49.6656 4.08181 15.917
rtibia 27.2684
rfoot 16.6145 -19.3995
rtoes 17.8116
lfemur -26.7159 8.98955 -25.9722
ltibia 37.7351
lfoot 6.75509 -11.6804
ltoes -21.3397
1008
root 48.5221 17.0677 -6.8674 -981.646 -91.4733 998.571
lowerback 22.6862 -1.52787 0.986991
upperback 6.02218 -2.2725 -1.34498
thorax -6.13832 -1.27677 -1.37982
lowerneck 6.24372 1.27208 3.21896
upperneck -18.2288 1.929 0.213753
head -6.54089 0.563809 -0.595639
rclavicle 4.77083e-015 2.78299e-014
rhumerus -28.0052 -0.848617 -90.3166
rradius 33.2898
rwrist 0.173528
rhand -22.8158 -8.02023
rfingers 7.12502
rthumb 3.62097 -37.9692
lclavicle 4.77083e-015 2.78299e-014
lhumerus -29.5547 -4.15281 86.0875
lradius 32.7497
lwrist 22.1657
lhand -20.6007 9.50214
lfingers 7.12502
lthumb 5.75989 39.4039
rfemur -49.9662 4.25532 15.5609
rtibia 27.0844
rfoot 16.6933 -19.6003
rtoes 16.6547
lfemur -27.1682 9.28843 -26.1424
ltibia 37.748
lfoot 6.69331 -12.1705
ltoes -21.0938
1009
root 48.6421 17.0627 -6.84543 -985.339 -91.4856 1002.29
lowerback 22.6105 -1.50862 0.996497
upperback 6.01946 -2.24774 -1.3756
thorax -6.10324 -1.26469 -1.42698
lowerneck 6.25777 1.27249 3.22192
upperneck -18.2422 1.93359 0.231695
head -6.54781 0.563932 -0.590899
rclavicle 1.70955e-014 -7.95139e-015
rhumerus -28.041 -0.814697 -90.4043
rradius 33.3166
rwrist 0.124738
rhand -22.7868 -8.01186
rfingers 7.12502
rthumb 3.649 -37.9604
lclavicle 1.70955e-014 -7.95139e-015
lhumerus -29.5318 -4.18256 86.1131
lradius 32.7441
lwrist 22.185
lhand -20.5573 9.49463
lfingers 7.12502
lthumb 5.80177 39.3952
rfemur -50.2888 4.35544 15.3125
rtibia 27.0594
rfoot 16.5914 -19.5055
rtoes 15.1936
lfemur -27.5945 9.56566 -26.2874
ltibia 37.7134
lfoot 6.57397 -12.6466
ltoes -20.96
1010
root 48.7601 17.0569 -6.82311 -989.675 -91.4839 1006.66
lowerback 22.537 -1.48808 1.02785
upperback 6.01031 -2.21548 -1.39875
thorax -6.07634 -1.24903 -1.48037
lowerneck 6.25396 1.27368 3.22201
upperneck -18.2304 1.93606 0.236958
head -6.54342 0.565024 -0.589334
rclavicle -4.77083e-015 -2.18663e-014
rhumerus -28.0857 -0.774537 -90.4823
rradius 33.3238
rwrist 0.10981
rhand -22.7426 -8.0183
rfingers 7.12502
rthumb 3.69167 -37.9661
lclavicle -4.77083e-015 -2.18663e-014
lhumerus -29.5231 -4.18038 86.1335
lradius 32.7251
lwrist 22.1909
lhand -20.517 9.49639
lfingers 7.12502
lthumb 5.84066 39.3959
rfemur -50.6277 4.38444 15.185
rtibia 27.2194
rfoot 16.2404 -19.1448
rtoes 13.5644
lfemur -28.0073 9.82824 -26.4151
ltibia 37.658
lfoot 6.40961 -13.0728
ltoes -20.9059
1011
root 48.8765 17.0502 -6.80083 -994.822 -91.4679 1011.85
lowerback 22.4776 -1.46565 1.08178
upperback 5.99466 -2.17482 -1.41307
thorax -6.06374 -1.22945 -1.53892
lowerneck 6.2357 1.2767 3.22241
upperneck -18.2064 1.93766 0.226322
head -6.53234 0.567325 -0.592666
rclavicle 1.92821e-014 1.27222e-014
rhumerus -28.1336 -0.737233 -90.5497
rradius 33.3059
rwrist 0.138201
rhand -22.691 -8.03697
rfingers 7.12502
rthumb 3.74151 -37.9839
lclavicle 1.92821e-014 1.27222e-014
lhumerus -29.5315 -4.15625 86.1483
lradius 32.6961
lwrist 22.1841
lhand -20.4806 9.49802
lfingers 7.12502
lthumb 5.87581 39.3965
rfemur -50.9812 4.34554 15.1911
rtibia 27.5808
rfoot 15.6372 -18.5131
rtoes 11.86
lfemur -28.4309 10.0897 -26.5302
ltibia 37.6093
lfoot 6.21621 -13.4266
ltoes -20.9581
